<svg width="54" height="21" viewBox="0 0 54 21" fill="none" xmlns="http://www.w3.org/2000/svg">
<g opacity="0.6">
<path d="M30.6803 8.08985L36.9045 20.3959H32.8751L29.5242 13.4931C29.3871 13.2172 29.1841 12.9793 28.9333 12.8005C28.6825 12.6216 28.3914 12.5072 28.0859 12.4675C27.7804 12.4277 27.4698 12.4638 27.1815 12.5726C26.8932 12.6813 26.6362 12.8594 26.433 13.091L24.2969 15.5623V20.3959H20.6025V0.860352H24.2969V9.64799L31.8363 0.860352H36.9296L30.6803 8.08985Z" fill="#000000e6"/>
<path d="M10.9769 20.3959H2.92647L4.14953 16.6932H11.0188C11.8726 16.7045 12.7009 16.4019 13.3464 15.8429C13.9919 15.2839 14.4097 14.5074 14.5205 13.6607C14.5772 13.1792 14.5314 12.6911 14.386 12.2285C14.2406 11.766 13.9989 11.3395 13.6768 10.9771C13.3548 10.6146 12.9596 10.3245 12.5174 10.1257C12.0751 9.927 11.5958 9.82414 11.1109 9.82392H7.25747C6.84149 9.86175 6.44788 10.0292 6.13223 10.3028C5.81658 10.5764 5.59483 10.9422 5.49827 11.3486H0.120117L3.16103 0.860352H16.3969L15.1655 4.55466H6.05952L5.00402 7.72963C6.32575 6.70002 7.95277 6.13997 9.6282 6.13795H11.1109C12.0865 6.13943 13.0515 6.34064 13.9463 6.72922C14.8412 7.1178 15.647 7.68555 16.3141 8.39739C16.9812 9.10924 17.4955 9.95015 17.8253 10.8683C18.155 11.7865 18.2933 12.7624 18.2315 13.736C18.0561 15.5452 17.2184 17.2258 15.8794 18.455C14.5404 19.6843 12.7945 20.3755 10.9769 20.3959Z" fill="#000000e6"/>
<path d="M44.7957 20.3708H39.2751L45.4659 13.5015C45.0364 13.5944 44.5984 13.6421 44.159 13.6439C42.4701 13.6375 40.8514 12.9671 39.6524 11.7775C38.4534 10.5879 37.7703 8.97452 37.7505 7.28564C37.7393 6.40168 37.9122 5.5251 38.2583 4.71165C38.6045 3.8982 39.1163 3.16576 39.761 2.56096C41.001 1.43924 42.6213 0.831234 44.2931 0.860376H47.2083C48.529 0.857199 49.8213 1.2443 50.9227 1.97312C52.0241 2.70194 52.8856 3.73998 53.399 4.95682C53.711 5.68163 53.8925 6.45583 53.9352 7.24377C53.9878 8.22689 53.7889 9.20722 53.3572 10.092C53.0773 10.6436 52.7343 11.1609 52.3352 11.6334L49.822 14.5487L44.7957 20.3708ZM44.1004 4.68875C43.4331 4.67799 42.7866 4.92044 42.2909 5.36729C41.9043 5.70799 41.6318 6.1593 41.5103 6.66007C41.3887 7.16084 41.4241 7.68686 41.6115 8.16687C41.7989 8.64688 42.1294 9.05767 42.5581 9.34358C42.9868 9.6295 43.4931 9.77673 44.0083 9.7653C44.3174 9.76411 44.6239 9.70735 44.913 9.59775L45.114 9.52238C46.0502 9.16449 47.0438 8.97996 48.046 8.97785H49.822C50.0469 8.60177 50.178 8.17709 50.2043 7.73968C50.2305 7.30227 50.1511 6.86497 49.9728 6.4647C49.7576 5.94002 49.3908 5.49153 48.9192 5.17663C48.4475 4.86173 47.8927 4.69476 47.3256 4.69713L44.1004 4.68875Z" fill="#000000e6"/>
</g>
</svg>
