<svg width="177" height="49" viewBox="0 0 177 49" fill="none" xmlns="http://www.w3.org/2000/svg">
<path d="M23.3506 4.61879C20.5559 2.50098 17.2373 1.43115 13.3947 1.43115H0.120117V45.8834C0.120117 46.4292 0.294782 46.8659 0.644112 47.2152C0.993442 47.5645 1.4301 47.7392 1.97593 47.7392H13.4165C17.2591 47.7392 20.5559 46.6694 23.3724 44.5516C26.167 42.4338 27.5862 39.4426 27.5862 35.6218V13.5485C27.5644 9.72774 26.167 6.7366 23.3506 4.61879ZM19.6389 35.6218C19.6389 37.3903 19.0276 38.7876 17.7831 39.792C16.5386 40.7963 15.0758 41.2984 13.3947 41.2984H8.02371V7.87192H13.3947C15.0758 7.87192 16.5386 8.37409 17.7831 9.37841C19.0276 10.3827 19.6389 11.7801 19.6389 13.5485V35.6218Z" fill="black"/>
<path d="M117.32 4.00746C114.525 1.88965 111.207 0.819824 107.364 0.819824H45.5545C41.7118 0.819824 38.415 1.88965 35.5986 4.00746C32.8039 6.12527 31.3848 9.11641 31.3848 12.9372V36.2332C31.3848 40.0758 32.7821 43.0451 35.5986 45.1629C38.3932 47.2807 41.7118 48.3505 45.5545 48.3505H107.364C111.207 48.3505 114.503 47.2807 117.32 45.1629C120.115 43.0451 121.534 40.0539 121.534 36.2332V12.9372C121.512 9.09458 120.115 6.12527 117.32 4.00746ZM113.608 36.2332C113.608 38.0016 112.997 39.3989 111.752 40.4033C110.508 41.4076 109.045 41.9098 107.364 41.9098H45.5545C43.8733 41.9098 42.4105 41.4076 41.166 40.4033C39.9215 39.3989 39.3102 38.0016 39.3102 36.2332V12.9372C39.3102 11.1687 39.9215 9.7714 41.166 8.76708C42.4105 7.76276 43.8733 7.2606 45.5545 7.2606H107.364C109.045 7.2606 110.508 7.76276 111.752 8.76708C112.997 9.7714 113.608 11.1687 113.608 12.9372V36.2332Z" fill="black"/>
<path d="M123.303 7.87192H132.407V47.7392H140.311V7.87192H149.393V1.43115H123.303V7.87192Z" fill="black"/>
<path d="M160.157 41.2984V27.3907H174.741V20.9718H160.157V7.87192H175.724V1.43115H152.231V45.8834C152.231 46.4292 152.406 46.8659 152.755 47.2152C153.105 47.5645 153.541 47.7392 154.087 47.7392H176.968V41.2984H160.157Z" fill="black"/>
</svg>
