<svg width="37" height="37" viewBox="0 0 37 37" fill="none" xmlns="http://www.w3.org/2000/svg">
<path d="M12.5413 18.6791C12.5413 15.3086 15.2721 12.5756 18.6416 12.5756C22.0111 12.5756 24.7433 15.3086 24.7433 18.6791C24.7433 22.0495 22.0111 24.7826 18.6416 24.7826C15.2721 24.7826 12.5413 22.0495 12.5413 18.6791ZM9.24285 18.6791C9.24285 23.8715 13.4506 28.0805 18.6416 28.0805C23.8325 28.0805 28.0403 23.8715 28.0403 18.6791C28.0403 13.4867 23.8325 9.27765 18.6416 9.27765C13.4506 9.27765 9.24285 13.4867 9.24285 18.6791ZM26.2159 8.90488C26.2158 9.33942 26.3444 9.76425 26.5856 10.1257C26.8268 10.4871 27.1697 10.7688 27.571 10.9353C27.9723 11.1017 28.4139 11.1454 28.84 11.0608C29.2661 10.9762 29.6576 10.7671 29.9649 10.4599C30.2722 10.1528 30.4815 9.7614 30.5664 9.33525C30.6514 8.90909 30.608 8.46731 30.4419 8.06578C30.2759 7.66425 29.9945 7.32101 29.6334 7.07944C29.2723 6.83788 28.8477 6.70886 28.4132 6.70868H28.4124C27.8301 6.70895 27.2717 6.9404 26.8599 7.35218C26.448 7.76396 26.2164 8.32241 26.2159 8.90488ZM11.2469 33.5821C9.46235 33.5009 8.4924 33.2035 7.84782 32.9523C6.99326 32.6195 6.38352 32.2232 5.74246 31.5828C5.10139 30.9424 4.70456 30.3331 4.37334 29.4783C4.12207 28.8338 3.82482 27.8633 3.74369 26.0782C3.65496 24.1483 3.63724 23.5686 3.63724 18.6792C3.63724 13.7899 3.65642 13.2117 3.74369 11.2802C3.82496 9.49516 4.12441 8.52654 4.37334 7.88016C4.70603 7.02535 5.10227 6.41544 5.74246 5.77419C6.38264 5.13294 6.99179 4.736 7.84782 4.40468C8.49211 4.15334 9.46235 3.856 11.2469 3.77485C13.1762 3.68609 13.7558 3.66837 18.6416 3.66837C23.5273 3.66837 24.1075 3.68756 26.0385 3.77485C27.823 3.85614 28.7913 4.15568 29.4375 4.40468C30.2921 4.736 30.9018 5.13382 31.5429 5.77419C32.184 6.41457 32.5793 7.02535 32.912 7.88016C33.1633 8.52464 33.4605 9.49516 33.5416 11.2802C33.6304 13.2117 33.6481 13.7899 33.6481 18.6792C33.6481 23.5686 33.6304 24.1467 33.5416 26.0782C33.4604 27.8633 33.1617 28.8335 32.912 29.4783C32.5793 30.3331 32.1831 30.943 31.5429 31.5828C30.9027 32.2226 30.2921 32.6195 29.4375 32.9523C28.7932 33.2037 27.823 33.501 26.0385 33.5821C24.1091 33.6709 23.5295 33.6886 18.6416 33.6886C13.7536 33.6886 13.1757 33.6709 11.2469 33.5821ZM11.0953 0.480996C9.14679 0.569758 7.81531 0.878813 6.65251 1.33141C5.44828 1.7988 4.42884 2.42585 3.41013 3.44324C2.39142 4.46063 1.76616 5.48198 1.29891 6.68656C0.84644 7.85043 0.537474 9.18156 0.448738 11.1307C0.358537 13.0828 0.337891 13.707 0.337891 18.6791C0.337891 23.6512 0.358537 24.2753 0.448738 26.2275C0.537474 28.1767 0.84644 29.5077 1.29891 30.6716C1.76616 31.8755 2.39156 32.898 3.41013 33.9149C4.42869 34.9319 5.44828 35.558 6.65251 36.0268C7.81751 36.4794 9.14679 36.7884 11.0953 36.8772C13.048 36.9659 13.6709 36.988 18.6416 36.988C23.6123 36.988 24.2362 36.9674 26.1878 36.8772C28.1365 36.7884 29.4671 36.4794 30.6306 36.0268C31.8341 35.558 32.8543 34.9323 33.873 33.9149C34.8917 32.8975 35.5157 31.8755 35.9842 30.6716C36.4367 29.5077 36.7471 28.1766 36.8344 26.2275C36.9231 24.2739 36.9438 23.6512 36.9438 18.6791C36.9438 13.707 36.9231 13.0828 36.8344 11.1307C36.7457 9.18142 36.4367 7.8497 35.9842 6.68656C35.5157 5.48271 34.8901 4.46224 33.873 3.44324C32.8559 2.42424 31.8341 1.7988 30.6321 1.33141C29.4671 0.878813 28.1363 0.568293 26.1893 0.480996C24.2377 0.392234 23.6137 0.370117 18.643 0.370117C13.6723 0.370117 13.048 0.39077 11.0953 0.480996Z" fill="black"/>
<path d="M12.5413 18.6791C12.5413 15.3086 15.2721 12.5756 18.6416 12.5756C22.0111 12.5756 24.7433 15.3086 24.7433 18.6791C24.7433 22.0495 22.0111 24.7826 18.6416 24.7826C15.2721 24.7826 12.5413 22.0495 12.5413 18.6791ZM9.24285 18.6791C9.24285 23.8715 13.4506 28.0805 18.6416 28.0805C23.8325 28.0805 28.0403 23.8715 28.0403 18.6791C28.0403 13.4867 23.8325 9.27765 18.6416 9.27765C13.4506 9.27765 9.24285 13.4867 9.24285 18.6791ZM26.2159 8.90488C26.2158 9.33942 26.3444 9.76425 26.5856 10.1257C26.8268 10.4871 27.1697 10.7688 27.571 10.9353C27.9723 11.1017 28.4139 11.1454 28.84 11.0608C29.2661 10.9762 29.6576 10.7671 29.9649 10.4599C30.2722 10.1528 30.4815 9.7614 30.5664 9.33525C30.6514 8.90909 30.608 8.46731 30.4419 8.06578C30.2759 7.66425 29.9945 7.32101 29.6334 7.07944C29.2723 6.83788 28.8477 6.70886 28.4132 6.70868H28.4124C27.8301 6.70895 27.2717 6.9404 26.8599 7.35218C26.448 7.76396 26.2164 8.32241 26.2159 8.90488ZM11.2469 33.5821C9.46235 33.5009 8.4924 33.2035 7.84782 32.9523C6.99326 32.6195 6.38352 32.2232 5.74246 31.5828C5.10139 30.9424 4.70456 30.3331 4.37334 29.4783C4.12207 28.8338 3.82482 27.8633 3.74369 26.0782C3.65496 24.1483 3.63724 23.5686 3.63724 18.6792C3.63724 13.7899 3.65642 13.2117 3.74369 11.2802C3.82496 9.49516 4.12441 8.52654 4.37334 7.88016C4.70603 7.02535 5.10227 6.41544 5.74246 5.77419C6.38264 5.13294 6.99179 4.736 7.84782 4.40468C8.49211 4.15334 9.46235 3.856 11.2469 3.77485C13.1762 3.68609 13.7558 3.66837 18.6416 3.66837C23.5273 3.66837 24.1075 3.68756 26.0385 3.77485C27.823 3.85614 28.7913 4.15568 29.4375 4.40468C30.2921 4.736 30.9018 5.13382 31.5429 5.77419C32.184 6.41457 32.5793 7.02535 32.912 7.88016C33.1633 8.52464 33.4605 9.49516 33.5416 11.2802C33.6304 13.2117 33.6481 13.7899 33.6481 18.6792C33.6481 23.5686 33.6304 24.1467 33.5416 26.0782C33.4604 27.8633 33.1617 28.8335 32.912 29.4783C32.5793 30.3331 32.1831 30.943 31.5429 31.5828C30.9027 32.2226 30.2921 32.6195 29.4375 32.9523C28.7932 33.2037 27.823 33.501 26.0385 33.5821C24.1091 33.6709 23.5295 33.6886 18.6416 33.6886C13.7536 33.6886 13.1757 33.6709 11.2469 33.5821ZM11.0953 0.480996C9.14679 0.569758 7.81531 0.878813 6.65251 1.33141C5.44828 1.7988 4.42884 2.42585 3.41013 3.44324C2.39142 4.46063 1.76616 5.48198 1.29891 6.68656C0.84644 7.85043 0.537474 9.18156 0.448738 11.1307C0.358537 13.0828 0.337891 13.707 0.337891 18.6791C0.337891 23.6512 0.358537 24.2753 0.448738 26.2275C0.537474 28.1767 0.84644 29.5077 1.29891 30.6716C1.76616 31.8755 2.39156 32.898 3.41013 33.9149C4.42869 34.9319 5.44828 35.558 6.65251 36.0268C7.81751 36.4794 9.14679 36.7884 11.0953 36.8772C13.048 36.9659 13.6709 36.988 18.6416 36.988C23.6123 36.988 24.2362 36.9674 26.1878 36.8772C28.1365 36.7884 29.4671 36.4794 30.6306 36.0268C31.8341 35.558 32.8543 34.9323 33.873 33.9149C34.8917 32.8975 35.5157 31.8755 35.9842 30.6716C36.4367 29.5077 36.7471 28.1766 36.8344 26.2275C36.9231 24.2739 36.9438 23.6512 36.9438 18.6791C36.9438 13.707 36.9231 13.0828 36.8344 11.1307C36.7457 9.18142 36.4367 7.8497 35.9842 6.68656C35.5157 5.48271 34.8901 4.46224 33.873 3.44324C32.8559 2.42424 31.8341 1.7988 30.6321 1.33141C29.4671 0.878813 28.1363 0.568293 26.1893 0.480996C24.2377 0.392234 23.6137 0.370117 18.643 0.370117C13.6723 0.370117 13.048 0.39077 11.0953 0.480996Z" fill="black"/>
</svg>
