<svg width="37" height="37" viewBox="0 0 37 37" fill="none" xmlns="http://www.w3.org/2000/svg">
<path d="M12.5726 18.6791C12.5726 15.3087 15.3033 12.5757 18.6728 12.5757C22.0423 12.5757 24.7745 15.3087 24.7745 18.6791C24.7745 22.0496 22.0423 24.7826 18.6728 24.7826C15.3033 24.7826 12.5726 22.0496 12.5726 18.6791ZM9.2741 18.6791C9.2741 23.8716 13.4819 28.0806 18.6728 28.0806C23.8637 28.0806 28.0715 23.8716 28.0715 18.6791C28.0715 13.4867 23.8637 9.27771 18.6728 9.27771C13.4819 9.27771 9.2741 13.4867 9.2741 18.6791ZM26.2472 8.90494C26.247 9.33948 26.3757 9.76431 26.6169 10.1257C26.8581 10.4871 27.201 10.7689 27.6023 10.9353C28.0035 11.1018 28.4452 11.1455 28.8713 11.0608C29.2974 10.9762 29.6888 10.7671 29.9961 10.46C30.3034 10.1529 30.5128 9.76147 30.5977 9.33531C30.6826 8.90915 30.6393 8.46737 30.4732 8.06585C30.3071 7.66432 30.0257 7.32107 29.6646 7.0795C29.3035 6.83794 28.8789 6.70892 28.4445 6.70874H28.4436C27.8613 6.70901 27.3029 6.94046 26.8911 7.35224C26.4793 7.76402 26.2477 8.32247 26.2472 8.90494ZM11.2781 33.5822C9.4936 33.5009 8.52365 33.2036 7.87907 32.9524C7.02451 32.6196 6.41477 32.2232 5.77371 31.5829C5.13264 30.9425 4.73581 30.3332 4.40459 29.4784C4.15332 28.8339 3.85607 27.8634 3.77494 26.0783C3.68621 24.1484 3.66849 23.5687 3.66849 18.6793C3.66849 13.7899 3.68767 13.2118 3.77494 11.2803C3.85621 9.49522 4.15566 8.5266 4.40459 7.88022C4.73728 7.02541 5.13352 6.41551 5.77371 5.77425C6.41389 5.133 7.02304 4.73606 7.87907 4.40474C8.52336 4.1534 9.4936 3.85606 11.2781 3.77491C13.2075 3.68615 13.7871 3.66843 18.6728 3.66843C23.5586 3.66843 24.1387 3.68762 26.0697 3.77491C27.8542 3.85621 28.8226 4.15574 29.4688 4.40474C30.3233 4.73606 30.9331 5.13388 31.5741 5.77425C32.2152 6.41463 32.6106 7.02541 32.9432 7.88022C33.1945 8.5247 33.4918 9.49522 33.5729 11.2803C33.6616 13.2118 33.6794 13.7899 33.6794 18.6793C33.6794 23.5687 33.6616 24.1468 33.5729 26.0783C33.4916 27.8634 33.1929 28.8336 32.9432 29.4784C32.6106 30.3332 32.2143 30.9431 31.5741 31.5829C30.9339 32.2227 30.3233 32.6196 29.4688 32.9524C28.8245 33.2037 27.8542 33.5011 26.0697 33.5822C24.1404 33.671 23.5608 33.6887 18.6728 33.6887C13.7849 33.6887 13.2069 33.671 11.2781 33.5822ZM11.1266 0.481057C9.17804 0.569819 7.84656 0.878874 6.68376 1.33147C5.47953 1.79886 4.46009 2.42591 3.44138 3.4433C2.42267 4.46069 1.79741 5.48204 1.33016 6.68663C0.87769 7.85049 0.568724 9.18162 0.479988 11.1307C0.389787 13.0829 0.369141 13.707 0.369141 18.6791C0.369141 23.6513 0.389787 24.2754 0.479988 26.2276C0.568724 28.1768 0.87769 29.5078 1.33016 30.6717C1.79741 31.8755 2.42281 32.898 3.44138 33.915C4.45994 34.9319 5.47953 35.5581 6.68376 36.0268C7.84876 36.4794 9.17804 36.7885 11.1266 36.8772C13.0792 36.966 13.7021 36.9881 18.6728 36.9881C23.6435 36.9881 24.2675 36.9675 26.2191 36.8772C28.1677 36.7885 29.4984 36.4794 30.6619 36.0268C31.8654 35.5581 32.8856 34.9324 33.9043 33.915C34.923 32.8976 35.5469 31.8755 36.0155 30.6717C36.468 29.5078 36.7784 28.1767 36.8657 26.2276C36.9544 24.2739 36.975 23.6513 36.975 18.6791C36.975 13.707 36.9544 13.0829 36.8657 11.1307C36.7769 9.18148 36.468 7.84976 36.0155 6.68663C35.5469 5.48277 34.9214 4.46231 33.9043 3.4433C32.8872 2.4243 31.8654 1.79886 30.6633 1.33147C29.4984 0.878874 28.1676 0.568354 26.2205 0.481057C24.2689 0.392295 23.645 0.370178 18.6743 0.370178C13.7036 0.370178 13.0792 0.390831 11.1266 0.481057Z" fill="white"/>
<path d="M12.5726 18.6791C12.5726 15.3087 15.3033 12.5757 18.6728 12.5757C22.0423 12.5757 24.7745 15.3087 24.7745 18.6791C24.7745 22.0496 22.0423 24.7826 18.6728 24.7826C15.3033 24.7826 12.5726 22.0496 12.5726 18.6791ZM9.2741 18.6791C9.2741 23.8716 13.4819 28.0806 18.6728 28.0806C23.8637 28.0806 28.0715 23.8716 28.0715 18.6791C28.0715 13.4867 23.8637 9.27771 18.6728 9.27771C13.4819 9.27771 9.2741 13.4867 9.2741 18.6791ZM26.2472 8.90494C26.247 9.33948 26.3757 9.76431 26.6169 10.1257C26.8581 10.4871 27.201 10.7689 27.6023 10.9353C28.0035 11.1018 28.4452 11.1455 28.8713 11.0608C29.2974 10.9762 29.6888 10.7671 29.9961 10.46C30.3034 10.1529 30.5128 9.76147 30.5977 9.33531C30.6826 8.90915 30.6393 8.46737 30.4732 8.06585C30.3071 7.66432 30.0257 7.32107 29.6646 7.0795C29.3035 6.83794 28.8789 6.70892 28.4445 6.70874H28.4436C27.8613 6.70901 27.3029 6.94046 26.8911 7.35224C26.4793 7.76402 26.2477 8.32247 26.2472 8.90494ZM11.2781 33.5822C9.4936 33.5009 8.52365 33.2036 7.87907 32.9524C7.02451 32.6196 6.41477 32.2232 5.77371 31.5829C5.13264 30.9425 4.73581 30.3332 4.40459 29.4784C4.15332 28.8339 3.85607 27.8634 3.77494 26.0783C3.68621 24.1484 3.66849 23.5687 3.66849 18.6793C3.66849 13.7899 3.68767 13.2118 3.77494 11.2803C3.85621 9.49522 4.15566 8.5266 4.40459 7.88022C4.73728 7.02541 5.13352 6.41551 5.77371 5.77425C6.41389 5.133 7.02304 4.73606 7.87907 4.40474C8.52336 4.1534 9.4936 3.85606 11.2781 3.77491C13.2075 3.68615 13.7871 3.66843 18.6728 3.66843C23.5586 3.66843 24.1387 3.68762 26.0697 3.77491C27.8542 3.85621 28.8226 4.15574 29.4688 4.40474C30.3233 4.73606 30.9331 5.13388 31.5741 5.77425C32.2152 6.41463 32.6106 7.02541 32.9432 7.88022C33.1945 8.5247 33.4918 9.49522 33.5729 11.2803C33.6616 13.2118 33.6794 13.7899 33.6794 18.6793C33.6794 23.5687 33.6616 24.1468 33.5729 26.0783C33.4916 27.8634 33.1929 28.8336 32.9432 29.4784C32.6106 30.3332 32.2143 30.9431 31.5741 31.5829C30.9339 32.2227 30.3233 32.6196 29.4688 32.9524C28.8245 33.2037 27.8542 33.5011 26.0697 33.5822C24.1404 33.671 23.5608 33.6887 18.6728 33.6887C13.7849 33.6887 13.2069 33.671 11.2781 33.5822ZM11.1266 0.481057C9.17804 0.569819 7.84656 0.878874 6.68376 1.33147C5.47953 1.79886 4.46009 2.42591 3.44138 3.4433C2.42267 4.46069 1.79741 5.48204 1.33016 6.68663C0.87769 7.85049 0.568724 9.18162 0.479988 11.1307C0.389787 13.0829 0.369141 13.707 0.369141 18.6791C0.369141 23.6513 0.389787 24.2754 0.479988 26.2276C0.568724 28.1768 0.87769 29.5078 1.33016 30.6717C1.79741 31.8755 2.42281 32.898 3.44138 33.915C4.45994 34.9319 5.47953 35.5581 6.68376 36.0268C7.84876 36.4794 9.17804 36.7885 11.1266 36.8772C13.0792 36.966 13.7021 36.9881 18.6728 36.9881C23.6435 36.9881 24.2675 36.9675 26.2191 36.8772C28.1677 36.7885 29.4984 36.4794 30.6619 36.0268C31.8654 35.5581 32.8856 34.9324 33.9043 33.915C34.923 32.8976 35.5469 31.8755 36.0155 30.6717C36.468 29.5078 36.7784 28.1767 36.8657 26.2276C36.9544 24.2739 36.975 23.6513 36.975 18.6791C36.975 13.707 36.9544 13.0829 36.8657 11.1307C36.7769 9.18148 36.468 7.84976 36.0155 6.68663C35.5469 5.48277 34.9214 4.46231 33.9043 3.4433C32.8872 2.4243 31.8654 1.79886 30.6633 1.33147C29.4984 0.878874 28.1676 0.568354 26.2205 0.481057C24.2689 0.392295 23.645 0.370178 18.6743 0.370178C13.7036 0.370178 13.0792 0.390831 11.1266 0.481057Z" fill="white"/>
</svg>
