<svg width="32" height="30" viewBox="0 0 32 30" fill="none" xmlns="http://www.w3.org/2000/svg">
<path d="M7.85513 29.4128V9.64725H1.2912V29.4128H7.85581H7.85513ZM4.57453 6.94907C6.86303 6.94907 8.28778 5.43131 8.28778 3.53453C8.24494 1.59454 6.86303 0.119141 4.61805 0.119141C2.37153 0.119141 0.904297 1.59454 0.904297 3.53436C0.904297 5.43113 2.32853 6.9489 4.53152 6.9489H4.57402L4.57453 6.94907ZM11.4884 29.4128H18.0518V18.376C18.0518 17.7861 18.0946 17.1946 18.268 16.7732C18.7423 15.5924 19.8223 14.3702 21.636 14.3702C24.0105 14.3702 24.961 16.1825 24.961 18.8399V29.4128H31.5242V18.0798C31.5242 12.009 28.2864 9.18386 23.968 9.18386C20.4275 9.18386 18.8725 11.1645 18.0086 12.5135H18.0523V9.64794H11.4887C11.5744 11.5022 11.4882 29.4135 11.4882 29.4135L11.4884 29.4128Z" fill="black"/>
</svg>
