<svg width="32" height="30" viewBox="0 0 32 30" fill="none" xmlns="http://www.w3.org/2000/svg">
<path d="M7.88638 29.4123V9.64677H1.32245V29.4123H7.88706H7.88638ZM4.60578 6.94858C6.89428 6.94858 8.31903 5.43082 8.31903 3.53404C8.27619 1.59405 6.89428 0.118652 4.6493 0.118652C2.40278 0.118652 0.935547 1.59405 0.935547 3.53387C0.935547 5.43065 2.35978 6.94841 4.56277 6.94841H4.60527L4.60578 6.94858ZM11.5196 29.4123H18.083V18.3755C18.083 17.7856 18.1259 17.1941 18.2993 16.7727C18.7735 15.5919 19.8535 14.3697 21.6672 14.3697C24.0418 14.3697 24.9922 16.1821 24.9922 18.8394V29.4123H31.5555V18.0793C31.5555 12.0085 28.3177 9.18338 23.9993 9.18338C20.4587 9.18338 18.9038 11.164 18.0398 12.513H18.0835V9.64745H11.5199C11.6056 11.5017 11.5194 29.413 11.5194 29.413L11.5196 29.4123Z" fill="white"/>
</svg>
