<svg width="162" height="44" viewBox="0 0 162 44" fill="none" xmlns="http://www.w3.org/2000/svg">
    <g opacity="0.7">
        <path d="M21.8881 4.06273C19.3429 2.13582 16.3321 1.17236 12.8525 1.17236H0.785156V41.5267C0.785156 42.0133 0.944127 42.4163 1.26207 42.7327C1.58001 43.0506 1.98145 43.2096 2.46799 43.2096H12.8508C16.3305 43.2096 19.3413 42.2461 21.8865 40.3192C24.43 38.3923 25.7034 35.6898 25.7034 32.2101V12.1734C25.7034 8.69375 24.4316 5.99125 21.8865 4.06273H21.8881ZM18.5208 32.2101C18.5208 33.8191 17.9604 35.0812 16.8363 35.9981C15.7139 36.915 14.386 37.3726 12.8508 37.3726H7.96773V7.00931H12.8508C14.3843 7.00931 15.7139 7.46855 16.8363 8.38384C17.9588 9.30073 18.5208 10.5645 18.5208 12.1734V32.2101Z" fill="white"/>
        <path d="M107.199 3.50243C104.654 1.57552 101.643 0.612061 98.1633 0.612061H42.0371C38.5574 0.612061 35.545 1.57552 33.0015 3.50243C30.4563 5.42934 29.1846 8.13345 29.1846 11.6131V32.7722C29.1846 36.2519 30.4563 38.956 33.0015 40.8829C35.545 42.8115 38.5574 43.7733 42.0371 43.7733H98.1633C101.643 43.7733 104.655 42.8099 107.199 40.8829C109.742 38.956 111.016 36.2535 111.016 32.7722V11.6131C111.016 8.13345 109.744 5.43095 107.199 3.50243ZM103.832 32.7722C103.832 34.3812 103.27 35.645 102.147 36.5618C101.025 37.4787 99.6952 37.9364 98.1617 37.9364H42.0355C40.5004 37.9364 39.1724 37.4787 38.05 36.5618C36.9276 35.645 36.3655 34.3828 36.3655 32.7722V11.6131C36.3655 10.0042 36.9276 8.74203 38.05 7.82353C39.1724 6.90825 40.5004 6.449 42.0355 6.449H98.1617C99.6952 6.449 101.025 6.90825 102.147 7.82353C103.27 8.74042 103.832 10.0042 103.832 11.6131V32.7722Z" fill="white"/>
        <path d="M112.645 7.00931H120.895V43.2112H128.079V7.00931H136.33V1.17236H112.645V7.00931Z" fill="white"/>
        <path d="M146.095 37.3744V24.7466H159.341V18.9097H146.095V7.01101H160.239V1.17407H138.911V41.5285C138.911 42.015 139.07 42.418 139.388 42.7344C139.706 43.0523 140.107 43.2113 140.594 43.2113H161.361V37.3744H146.095Z" fill="white"/>
    </g>
</svg>
