<svg width="20" height="17" viewBox="0 0 20 17" fill="none" xmlns="http://www.w3.org/2000/svg">
<path d="M1.23752 7.25608C1.23752 7.25608 9.78229 3.65717 12.7458 2.3899C13.8818 1.88304 17.7343 0.260932 17.7343 0.260932C17.7343 0.260932 19.5125 -0.448677 19.3643 1.27473C19.3148 1.98441 18.9197 4.46815 18.5246 7.15471C17.9319 10.9564 17.2898 15.1129 17.2898 15.1129C17.2898 15.1129 17.191 16.2788 16.3514 16.4816C15.5117 16.6843 14.1287 15.772 13.8818 15.5691C13.6842 15.4171 10.1774 13.1361 8.89322 12.0209C8.54747 11.7168 8.15236 11.1085 8.94258 10.3989C10.7207 8.72609 12.8445 6.64784 14.1287 5.32993C14.7214 4.72162 15.3141 3.30233 12.8445 5.02574C9.33776 7.50955 5.88034 9.84126 5.88034 9.84126C5.88034 9.84126 5.09005 10.3481 3.60832 9.89191C2.12651 9.43577 0.397804 8.82747 0.397804 8.82747C0.397804 8.82747 -0.787528 8.06713 1.23752 7.25608Z" fill="#1F6CFF"/>
</svg>
