 <svg width="20" height="17" viewBox="0 0 20 17" fill="none" xmlns="http://www.w3.org/2000/svg">
<path d="M1.23745 7.25608C1.23745 7.25608 9.78223 3.65717 12.7457 2.3899C13.8817 1.88304 17.7343 0.260932 17.7343 0.260932C17.7343 0.260932 19.5124 -0.448677 19.3642 1.27473C19.3148 1.98441 18.9197 4.46815 18.5246 7.15471C17.9318 10.9564 17.2897 15.1129 17.2897 15.1129C17.2897 15.1129 17.191 16.2788 16.3513 16.4816C15.5117 16.6843 14.1286 15.772 13.8817 15.5691C13.6841 15.4171 10.1773 13.1361 8.89316 12.0209C8.54741 11.7168 8.1523 11.1085 8.94252 10.3989C10.7207 8.72609 12.8445 6.64784 14.1286 5.32993C14.7214 4.72162 15.314 3.30233 12.8445 5.02574C9.3377 7.50955 5.88028 9.84126 5.88028 9.84126C5.88028 9.84126 5.08999 10.3481 3.60825 9.89191C2.12645 9.43577 0.397743 8.82747 0.397743 8.82747C0.397743 8.82747 -0.787589 8.06713 1.23745 7.25608Z" fill="black"/>
</svg>
