<svg width="58" height="51" viewBox="0 0 58 51" fill="none" xmlns="http://www.w3.org/2000/svg">
<mask id="mask0_767_308" style="mask-type:luminance" maskUnits="userSpaceOnUse" x="0" y="0" width="58" height="51">
<path d="M0.108231 24.7558C0.108231 40.8452 13.7298 50.5342 30.3648 50.5342C45.5701 50.5342 57.2193 39.519 57.2193 30.6154C57.2193 22.258 51.9606 18.2305 45.1409 13.7051C39.0122 9.64808 34.3317 0.789795 21.7218 0.789795C7.55696 0.789795 0.108231 13.7376 0.108231 24.7558Z" fill="white"/>
</mask>
<g mask="url(#mask0_767_308)">
<path d="M0.108231 24.7558C0.108231 40.8452 13.7298 50.5342 30.3648 50.5342C45.5701 50.5342 57.2193 39.519 57.2193 30.6154C57.2193 22.258 51.9606 18.2305 45.1409 13.7051C39.0122 9.64808 34.3317 0.789795 21.7218 0.789795C7.55696 0.789795 0.108231 13.7376 0.108231 24.7558Z" fill="url(#paint0_linear_767_308)"/>
</g>
<path d="M23.3845 32.6362C21.6224 32.6362 20.6464 30.8245 20.6464 28.9894C20.6464 27.1544 21.6224 25.3954 23.3845 25.3954C25.1466 25.3954 26.1153 27.155 26.1153 28.9894C26.1153 30.8239 25.1417 32.6362 23.3845 32.6362ZM23.3845 22.152C19.5397 22.152 16.9818 25.193 16.9818 29.0078C16.9818 32.8226 19.5397 35.8661 23.3845 35.8661C27.2189 35.8661 29.772 32.8275 29.772 29.0078C29.772 25.1881 27.2189 22.1538 23.3845 22.1538M33.8124 22.1612C32.5205 22.1612 31.4715 25.2298 31.4715 29.017C31.4715 32.8042 32.5205 35.8729 33.8124 35.8729C35.1042 35.8729 36.1502 32.8042 36.1502 29.017C36.1502 25.2298 35.1036 22.1612 33.8124 22.1612ZM33.7823 20.4592C34.2367 20.4599 34.6811 20.3258 35.0593 20.0739C35.4374 19.822 35.7324 19.4636 35.9068 19.0441C36.0812 18.6245 36.1273 18.1626 36.0391 17.7169C35.951 17.2711 35.7326 16.8615 35.4116 16.5399C35.0906 16.2183 34.6814 15.9992 34.2358 15.9102C33.7902 15.8212 33.3283 15.8664 32.9084 16.04C32.4885 16.2137 32.1295 16.5079 31.8769 16.8856C31.6243 17.2633 31.4894 17.7075 31.4893 18.1618C31.4889 18.4633 31.5479 18.7618 31.6629 19.0405C31.778 19.3191 31.9468 19.5723 32.1597 19.7857C32.3727 19.999 32.6256 20.1683 32.904 20.2839C33.1824 20.3995 33.4809 20.459 33.7823 20.4592Z" fill="white"/>
<defs>
<linearGradient id="paint0_linear_767_308" x1="9.46216" y1="44.3059" x2="43.4783" y2="10.2897" gradientUnits="userSpaceOnUse">
<stop stop-color="#FFFF00"/>
<stop offset="0.31" stop-color="#00D217"/>
<stop offset="0.5" stop-color="#00D217"/>
<stop offset="0.69" stop-color="#00D217"/>
<stop offset="1" stop-color="#00CDFF"/>
</linearGradient>
</defs>
</svg>
