<svg width="82" height="23" viewBox="0 0 82 23" fill="none" xmlns="http://www.w3.org/2000/svg">
<path d="M79.6228 0.893433H78.1911C76.3547 0.893433 76.2381 1.09575 76.0961 1.40983L73.2522 8.24053C72.3059 10.5068 71.3294 12.9461 70.9549 14.2114C70.6123 12.9461 69.9784 11.2541 68.6544 8.12388L65.8097 1.40983C65.6375 1.00193 64.9188 0.893433 63.3712 0.893433H61.7649C60.1864 0.893433 59.8666 1.03457 59.8666 1.35436V21.9639C59.8666 22.3384 60.1864 22.424 61.8245 22.424H62.7153C64.3241 22.424 64.785 22.3425 64.785 21.9639V9.73916H64.9017C64.9981 10.1128 65.1236 10.4783 65.277 10.8323L68.5508 18.5009C68.6919 18.8451 68.8706 18.9903 70.3879 18.9903H71.3669C72.9169 18.9903 73.0311 18.8737 73.1731 18.5009L76.1581 11.1228C76.3458 10.6712 76.5092 10.2098 76.6476 9.74079H76.7642V21.9696C76.7642 22.3449 77.0775 22.4306 78.7728 22.4306H79.6334C81.212 22.4306 81.6729 22.349 81.6729 21.9696V1.35436C81.6729 1.03457 81.2128 0.893433 79.6334 0.893433M55.8047 1.35436C55.8047 1.03457 55.3503 0.893433 53.7709 0.893433H52.8393C51.1742 0.893433 50.8854 1.03457 50.8854 1.35436V21.9639C50.8854 22.3384 51.1742 22.424 52.8393 22.424H53.7603C55.3397 22.424 55.7998 22.3425 55.7998 21.9639L55.8047 1.35436ZM47.0405 0.893433C47.4705 0.893433 47.5561 0.948908 47.5561 2.47201V3.87926C47.5561 5.34118 47.4395 5.51087 47.0405 5.51087H42.1629V21.9639C42.1629 22.3384 41.7019 22.424 40.0679 22.424H39.208C37.543 22.424 37.2542 22.3425 37.2542 21.9639V5.51331H32.3773C31.9776 5.51331 31.8609 5.39584 31.8609 3.88171V2.47201C31.8552 0.893433 31.9433 0.893433 32.3708 0.893433H47.0405Z" fill="#063B88"/>
<path d="M10.6436 17.8171H1.57681C1.41372 17.8166 1.25212 17.8483 1.10133 17.9105C0.950544 17.9726 0.813541 18.064 0.698212 18.1793C0.582882 18.2947 0.491504 18.4317 0.429337 18.5825C0.36717 18.7332 0.335443 18.8948 0.335982 19.0579V21.1831C0.334367 21.3455 0.365623 21.5066 0.427872 21.6566C0.49012 21.8066 0.582073 21.9425 0.698197 22.056C0.813093 22.1719 0.950016 22.2637 1.10091 22.3259C1.2518 22.3881 1.41361 22.4195 1.57681 22.4182H10.6436V17.8171ZM25.7433 18.1883C25.629 18.0713 25.4925 17.9784 25.3417 17.9151C25.1909 17.8517 25.029 17.8192 24.8655 17.8195H15.797V22.4207H24.8647C25.0285 22.4208 25.1907 22.388 25.3416 22.3242C25.4925 22.2604 25.6291 22.167 25.7433 22.0495C25.9727 21.8173 26.1008 21.5038 26.0998 21.1774V19.0563C26.1004 18.8953 26.0692 18.7357 26.008 18.5868C25.9469 18.4378 25.8569 18.3024 25.7433 18.1883ZM25.7433 9.72925C25.629 9.61226 25.4925 9.51934 25.3417 9.45601C25.1909 9.39268 25.029 9.3602 24.8655 9.36051H15.797V13.9616H24.8647C25.0285 13.9617 25.1907 13.9289 25.3416 13.8652C25.4925 13.8014 25.6291 13.708 25.7433 13.5904C25.9714 13.3591 26.0992 13.0473 26.099 12.7224V10.5867C26.0989 10.2643 25.971 9.95505 25.7433 9.72681M10.6444 9.35807H1.57681C1.41358 9.35713 1.25181 9.38876 1.10094 9.45109C0.950081 9.51342 0.813163 9.60522 0.698197 9.7211C0.467239 9.95269 0.337062 10.2661 0.335982 10.5932V12.7224C0.337908 13.0509 0.469257 13.3654 0.701542 13.5977C0.933827 13.83 1.24832 13.9613 1.57681 13.9633H10.6436L10.6444 9.35807ZM24.8655 5.50014H1.57681C1.24743 5.49863 0.93185 5.36765 0.698197 5.13548C0.582576 5.02087 0.490985 4.88435 0.428788 4.7339C0.366592 4.58345 0.33504 4.42211 0.335982 4.25931V2.13415C0.337062 1.80707 0.467239 1.49365 0.698197 1.26206C0.81287 1.14584 0.949751 1.05388 1.10069 0.991656C1.25164 0.929429 1.41356 0.898204 1.57681 0.899842H24.8647C25.0272 0.900162 25.1881 0.932526 25.3381 0.995077C25.4882 1.05763 25.6244 1.14914 25.739 1.26439C25.8537 1.37963 25.9445 1.51634 26.0062 1.6667C26.068 1.81707 26.0995 1.97813 26.099 2.14068V4.26176C26.1004 4.42424 26.0694 4.58538 26.0079 4.73578C25.9464 4.88617 25.8555 5.0228 25.7406 5.1377C25.6257 5.25259 25.4891 5.34346 25.3387 5.40499C25.1883 5.46652 25.0271 5.49748 24.8647 5.49607" fill="#E40D2C"/>
</svg>
