<svg width="39" height="32" viewBox="0 0 39 32" fill="none" xmlns="http://www.w3.org/2000/svg">
<path d="M38.0728 4.00159C36.8647 4.522 35.5945 4.88439 34.2938 5.07979C34.9019 4.97545 35.7967 3.87986 36.1529 3.43641C36.694 2.7675 37.1064 2.00389 37.3692 1.18436C37.3692 1.1235 37.43 1.03655 37.3692 0.99307C37.3385 0.976327 37.3042 0.967553 37.2692 0.967553C37.2343 0.967553 37.2 0.976327 37.1693 0.99307C35.7569 1.75861 34.2537 2.34289 32.6953 2.7321C32.641 2.74871 32.5832 2.7502 32.5281 2.73641C32.473 2.72262 32.4227 2.69408 32.3826 2.65384C32.2613 2.50927 32.1307 2.37275 31.9916 2.24517C31.356 1.67516 30.6348 1.20863 29.8545 0.862643C28.8012 0.430127 27.6635 0.242813 26.5273 0.314849C25.4248 0.384539 24.3484 0.680512 23.365 1.18436C22.3967 1.71557 21.5457 2.43723 20.8631 3.30598C20.145 4.20014 19.6266 5.23784 19.3428 6.34928C19.1087 7.40648 19.0821 8.49914 19.2646 9.56648C19.2646 9.74908 19.2646 9.77517 19.1082 9.74908C12.9141 8.83609 7.83192 6.63622 3.67933 1.91476C3.4969 1.70607 3.40133 1.70607 3.25365 1.91476C1.44666 4.66242 2.32409 9.00999 4.58282 11.1577C4.88688 11.4446 5.19963 11.7229 5.52975 11.9837C4.49414 11.9101 3.48382 11.6293 2.55865 11.1577C2.3849 11.0447 2.28934 11.1055 2.28066 11.3142C2.25603 11.6035 2.25603 11.8944 2.28066 12.1837C2.46192 13.5702 3.00786 14.8837 3.86264 15.9898C4.71741 17.0959 5.85036 17.9549 7.14561 18.479C7.46136 18.6144 7.79037 18.7164 8.12729 18.7833C7.16857 18.9723 6.18528 19.0016 5.217 18.8703C5.00851 18.8268 4.93032 18.9398 5.00851 19.1398C6.28556 22.6179 9.05684 23.6787 11.0897 24.27C11.3677 24.3134 11.6457 24.3134 11.9584 24.383C11.9584 24.383 11.9584 24.383 11.9063 24.4352C11.3069 25.5308 8.8831 26.2699 7.77111 26.6524C5.74144 27.3821 3.57744 27.661 1.42929 27.4698C1.09048 27.4176 1.01229 27.4263 0.925418 27.4698C0.838544 27.5133 0.925418 27.6089 1.02098 27.6959C1.45535 27.9828 1.88972 28.235 2.34147 28.4784C3.68632 29.2126 5.1081 29.7958 6.58093 30.2175C14.2085 32.3217 22.7917 30.7739 28.5167 25.0786C33.0168 20.6093 34.5979 14.4445 34.5979 8.27091C34.5979 8.03614 34.8846 7.89701 35.0496 7.77528C36.1881 6.88742 37.1918 5.83887 38.0294 4.66242C38.1745 4.48706 38.2488 4.26377 38.2379 4.03637C38.2379 3.90594 38.2379 3.93203 38.0728 4.00159Z" fill="black"/>
</svg>
