<svg width="39" height="32" viewBox="0 0 39 32" fill="none" xmlns="http://www.w3.org/2000/svg">
<path d="M38.1041 4.0011C36.8959 4.52151 35.6258 4.8839 34.3251 5.0793C34.9332 4.97496 35.828 3.87937 36.1842 3.43592C36.7253 2.76701 37.1377 2.0034 37.4004 1.18388C37.4004 1.12301 37.4612 1.03606 37.4004 0.992582C37.3698 0.975839 37.3354 0.967065 37.3005 0.967065C37.2656 0.967065 37.2312 0.975839 37.2006 0.992582C35.7882 1.75812 34.285 2.3424 32.7266 2.73161C32.6723 2.74822 32.6144 2.74971 32.5593 2.73592C32.5042 2.72214 32.4539 2.69359 32.4138 2.65335C32.2925 2.50878 32.1619 2.37227 32.0229 2.24468C31.3873 1.67467 30.6661 1.20814 29.8858 0.862155C28.8325 0.429638 27.6947 0.242325 26.5585 0.314361C25.456 0.38405 24.3796 0.680024 23.3963 1.18388C22.4279 1.71508 21.5769 2.43674 20.8943 3.30549C20.1763 4.19966 19.6579 5.23736 19.374 6.34879C19.1399 7.40599 19.1134 8.49865 19.2958 9.56599C19.2958 9.74859 19.2958 9.77468 19.1394 9.74859C12.9453 8.8356 7.86317 6.63573 3.71058 1.91427C3.52815 1.70558 3.43258 1.70558 3.2849 1.91427C1.47791 4.66193 2.35534 9.00951 4.61407 11.1572C4.91813 11.4441 5.23088 11.7224 5.561 11.9832C4.52539 11.9097 3.51507 11.6288 2.5899 11.1572C2.41615 11.0442 2.32059 11.105 2.31191 11.3137C2.28728 11.603 2.28728 11.8939 2.31191 12.1832C2.49317 13.5698 3.03911 14.8832 3.89389 15.9893C4.74866 17.0954 5.88161 17.9544 7.17686 18.4785C7.49261 18.6139 7.82162 18.7159 8.15854 18.7828C7.19982 18.9718 6.21653 19.0011 5.24825 18.8698C5.03976 18.8263 4.96157 18.9394 5.03976 19.1393C6.31681 22.6174 9.08809 23.6782 11.121 24.2695C11.3989 24.313 11.6769 24.313 11.9897 24.3825C11.9897 24.3825 11.9897 24.3825 11.9376 24.4347C11.3381 25.5303 8.91435 26.2694 7.80236 26.652C5.77269 27.3816 3.60869 27.6605 1.46054 27.4693C1.12173 27.4171 1.04354 27.4258 0.956668 27.4693C0.869794 27.5128 0.956668 27.6084 1.05223 27.6954C1.4866 27.9823 1.92097 28.2345 2.37272 28.4779C3.71757 29.2121 5.13935 29.7953 6.61218 30.217C14.2397 32.3212 22.8229 30.7735 28.5479 25.0781C33.048 20.6088 34.6291 14.444 34.6291 8.27042C34.6291 8.03565 34.9158 7.89653 35.0809 7.77479C36.2194 6.88693 37.2231 5.83838 38.0606 4.66193C38.2057 4.48657 38.2801 4.26329 38.2691 4.03588C38.2691 3.90546 38.2691 3.93154 38.1041 4.0011Z" fill="white"/>
</svg>
