<svg width="22" height="22" viewBox="0 0 22 22" fill="none" xmlns="http://www.w3.org/2000/svg">
<path d="M0.646606 21.7228L2.15331 16.1205C0.938191 13.9381 0.552136 11.3915 1.06599 8.94787C1.57983 6.50427 2.95912 4.32762 4.95074 2.81734C6.94236 1.30706 9.41272 0.564454 11.9085 0.725798C14.4043 0.887141 16.7581 1.94161 18.538 3.6957C20.3179 5.4498 21.4045 7.78586 21.5984 10.2752C21.7923 12.7646 21.0804 15.2402 19.5936 17.2479C18.1067 19.2556 15.9444 20.6607 13.5036 21.2053C11.0628 21.7498 8.50717 21.3974 6.30564 20.2126L0.646606 21.7228ZM6.5785 18.1162L6.92849 18.3235C8.5231 19.2671 10.3856 19.6576 12.2257 19.4341C14.0658 19.2106 15.7802 18.3857 17.1017 17.0879C18.4232 15.7901 19.2775 14.0924 19.5316 12.2592C19.7857 10.4261 19.4252 8.56051 18.5064 6.95324C17.5876 5.34597 16.162 4.08728 14.4518 3.37333C12.7416 2.65938 10.8429 2.53027 9.05154 3.00611C7.26018 3.48196 5.67681 4.53603 4.54816 6.00407C3.41951 7.47211 2.809 9.27166 2.81175 11.1223C2.81025 12.6567 3.23532 14.1615 4.03965 15.4691L4.25913 15.8303L3.4168 18.9572L6.5785 18.1162Z" fill="#00BC40"/>
<path fill-rule="evenodd" clip-rule="evenodd" d="M15.0728 12.5603C14.8676 12.3951 14.6274 12.2788 14.3704 12.2203C14.1134 12.1618 13.8464 12.1626 13.5898 12.2227C13.2042 12.3826 12.9551 12.9867 12.7059 13.2887C12.6534 13.3611 12.5762 13.4119 12.4888 13.4315C12.4015 13.4511 12.3099 13.4382 12.2314 13.3953C10.8198 12.8433 9.63658 11.8311 8.87394 10.5231C8.80889 10.4414 8.7781 10.3378 8.78806 10.234C8.79802 10.1301 8.84794 10.0342 8.92732 9.9664C9.2052 9.69177 9.40922 9.35162 9.52051 8.97742C9.54523 8.56466 9.45051 8.15351 9.24765 7.793C9.09082 7.28759 8.79236 6.83755 8.38752 6.49607C8.17872 6.40232 7.9472 6.37088 7.7209 6.40556C7.4946 6.44023 7.28319 6.53954 7.11216 6.6915C6.81525 6.94724 6.57959 7.26621 6.42252 7.62493C6.26544 7.98364 6.19097 8.37296 6.20458 8.76422C6.2055 8.98394 6.23339 9.20271 6.28763 9.41565C6.42537 9.92726 6.6372 10.416 6.91641 10.8666C7.11786 11.2116 7.33765 11.5457 7.57485 11.8674C8.34573 12.9239 9.31474 13.8209 10.4281 14.5086C10.9868 14.8581 11.5839 15.1423 12.2077 15.3555C12.8556 15.6487 13.571 15.7613 14.2779 15.6812C14.6806 15.6203 15.0622 15.4616 15.3891 15.2189C15.716 14.9762 15.9781 14.6571 16.1524 14.2895C16.2548 14.0675 16.2859 13.8192 16.2414 13.5789C16.1346 13.0873 15.4761 12.7971 15.0728 12.5603Z" fill="#00BC40"/>
</svg>
